<svg width="0" height="0" class="hidden">
  <symbol xmlns="http://www.w3.org/2000/svg" viewBox="0 0 30 30" id="close">
    <path d="M8.63574 8.63604C9.02627 8.24551 9.65943 8.24551 10.05 8.63604L21.3637 19.9497C21.7542 20.3403 21.7542 20.9734 21.3637 21.364V21.364C20.9731 21.7545 20.34 21.7545 19.9495 21.364L8.63574 10.0503C8.24522 9.65973 8.24522 9.02656 8.63574 8.63604V8.63604Z"></path>
    <path d="M21.3643 8.63604C21.7548 9.02656 21.7548 9.65973 21.3643 10.0503L10.0506 21.364C9.66003 21.7545 9.02686 21.7545 8.63634 21.364V21.364C8.24581 20.9734 8.24581 20.3403 8.63634 19.9497L19.95 8.63604C20.3406 8.24552 20.9737 8.24552 21.3643 8.63604V8.63604Z"></path>
  </symbol>
  <symbol xmlns="http://www.w3.org/2000/svg" viewBox="0 0 30 30" id="email">
    <path d="m23 11-8 5-8-5V9l8 5 8-5v2Zm0-4H7c-1.11 0-2 .89-2 2v12a2 2 0 0 0 2 2h16a2 2 0 0 0 2-2V9a2 2 0 0 0-2-2Z"></path>
  </symbol>
  <symbol xmlns="http://www.w3.org/2000/svg" viewBox="0 0 30 30" id="faq">
    <path d="m19.605 13.875-1.35 1.38c-1.08 1.08-1.755 1.995-1.755 4.245h-3v-.75c0-1.665.675-3.165 1.755-4.245l1.86-1.89c.555-.54.885-1.29.885-2.115a3 3 0 1 0-6 0H9a6 6 0 1 1 12 0 4.8 4.8 0 0 1-1.395 3.375ZM16.5 25.5h-3v-3h3v3ZM15 0a15 15 0 1 0 15 15c0-8.295-6.75-15-15-15Z"></path>
  </symbol>
  <symbol xmlns="http://www.w3.org/2000/svg" viewBox="0 0 30 30" id="lock">
    <path d="M15 20.5a2 2 0 1 0 0-4 2 2 0 0 0 0 4Zm6-9a2 2 0 0 1 2 2v10a2 2 0 0 1-2 2H9a2 2 0 0 1-2-2v-10a2 2 0 0 1 2-2h1v-2a5 5 0 0 1 10 0v2h1Zm-6-5a3 3 0 0 0-3 3v2h6v-2a3 3 0 0 0-3-3Z"></path>
  </symbol>
  <symbol xmlns="http://www.w3.org/2000/svg" viewBox="0 0 30 30" id="arrow-left">
    <path d="M22.92 16L22.92 14L10.92 14L16.42 8.5L15 7.08L7.08 15L15 22.92L16.42 21.5L10.92 16L22.92 16Z"></path>
  </symbol>
  <symbol xmlns="http://www.w3.org/2000/svg" viewBox="0 0 30 30" id="arrow-right">
    <path d="M7.08 14v2h12l-5.5 5.5L15 22.92 22.92 15 15 7.08 13.58 8.5l5.5 5.5h-12Z"></path>
  </symbol>
  <symbol xmlns="http://www.w3.org/2000/svg" viewBox="0 0 30 30" id="clock">
    <path d="M15 0C6.75 0 0 6.75 0 15s6.75 15 15 15 15-6.75 15-15S23.25 0 15 0Zm6.3 21.3-7.8-4.8v-9h2.25v7.8l6.75 4.05-1.2 1.95Z"></path>
  </symbol>
</svg>