<?xml version="1.0" standalone="no"?>
<!DOCTYPE svg PUBLIC "-//W3C//DTD SVG 20010904//EN"
 "http://www.w3.org/TR/2001/REC-SVG-20010904/DTD/svg10.dtd">
<svg version="1.0" xmlns="http://www.w3.org/2000/svg"
 width="500.000000pt" height="500.000000pt" viewBox="0 0 500.000000 500.000000"
 preserveAspectRatio="xMidYMid meet">
<metadata>
Created by potrace 1.14, written by Peter Selinger 2001-2017
</metadata>
<g transform="translate(0.000000,500.000000) scale(0.100000,-0.100000)"
fill="#000000" stroke="none">
<path d="M3020 2500 l0 -1060 270 0 270 0 0 1060 0 1060 -270 0 -270 0 0
-1060z"/>
<path d="M2230 2739 l0 -211 135 -136 135 -136 135 135 135 134 0 213 0 212
-270 0 -270 0 0 -211z"/>
<path d="M1440 1895 l0 -445 270 0 270 0 0 445 0 445 -270 0 -270 0 0 -445z
m530 1 l0 -435 -260 -1 -260 -1 0 436 1 435 259 0 259 0 1 -434z"/>
<path d="M1593 2313 c59 -2 155 -2 215 0 59 1 10 3 -108 3 -118 0 -167 -2
-107 -3z"/>
<path d="M2230 1812 l0 -373 270 1 270 1 0 372 0 372 -135 -135 -135 -135
-135 135 -135 135 0 -373z"/>
</g>
</svg>
