<svg width="30" height="30" viewBox="0 0 30 30" xmlns="http://www.w3.org/2000/svg"><path d="M8.63574 8.63604C9.02627 8.24551 9.65943 8.24551 10.05 8.63604L21.3637 19.9497C21.7542 20.3403 21.7542 20.9734 21.3637 21.364V21.364C20.9731 21.7545 20.34 21.7545 19.9495 21.364L8.63574 10.0503C8.24522 9.65973 8.24522 9.02656 8.63574 8.63604V8.63604Z"/><path d="M21.3643 8.63604C21.7548 9.02656 21.7548 9.65973 21.3643 10.0503L10.0506 21.364C9.66003 21.7545 9.02686 21.7545 8.63634 21.364V21.364C8.24581 20.9734 8.24581 20.3403 8.63634 19.9497L19.95 8.63604C20.3406 8.24552 20.9737 8.24552 21.3643 8.63604V8.63604Z"/></svg>